<svg version="1.1" id="Layer_1" xmlns="http://www.w3.org/2000/svg" xmlns:xlink="http://www.w3.org/1999/xlink" x="0px" y="0px"
	 width="100%" viewBox="0 0 377 640" enable-background="new 0 0 377 640" xml:space="preserve">
<path fill="#F7F7FA" opacity="1.000000" stroke="none" 
	d="
M378.000000,195.000000 
	C378.000000,343.999969 378.000000,492.499908 378.000000,640.999878 
	C252.333405,640.999939 126.666794,640.999939 1.000147,641.000000 
	C1.000098,427.666779 1.000098,214.333572 1.000049,1.000262 
	C126.666527,1.000174 252.333054,1.000174 377.999786,1.000087 
	C378.000000,65.500000 378.000000,130.000000 378.000000,195.000000 
M158.582397,118.671021 
	C158.438843,119.012329 158.295273,119.353638 157.808090,120.061600 
	C157.101639,121.692505 156.395203,123.323410 155.149170,125.377052 
	C154.784058,126.922661 154.418930,128.468277 153.663071,130.439011 
	C153.466690,130.961014 153.270309,131.483002 152.663467,132.346786 
	C152.600327,132.513260 152.537186,132.679733 152.080627,133.240936 
	C151.916016,133.772827 151.751389,134.304718 151.088226,135.350937 
	C150.510681,141.182144 147.216553,143.302277 141.588715,142.454651 
	C140.125046,142.234192 138.481934,142.797607 137.130737,142.357620 
	C135.891068,141.953949 134.381805,140.897583 133.939148,139.759995 
	C130.231796,130.232285 127.297310,120.366066 123.056435,111.092781 
	C116.973297,97.791145 109.985313,84.903328 103.195694,71.201187 
	C102.471786,70.131981 101.747879,69.062775 100.973862,67.333961 
	C100.594742,66.559875 100.215622,65.785782 99.880554,64.317284 
	C93.091110,54.389072 86.401787,44.389763 79.439438,34.584320 
	C77.769341,32.232243 75.393387,30.228828 72.986153,28.586853 
	C68.926788,25.817959 65.126083,26.589260 62.787777,31.040983 
	C59.895206,36.547928 56.818127,42.206852 55.372059,48.175934 
	C51.694324,63.356888 49.263111,78.838844 45.621910,94.029884 
	C41.287380,112.113457 39.862366,130.366241 41.213066,148.807114 
	C42.125656,161.266525 45.790703,173.073044 51.996334,184.723068 
	C53.319218,188.980927 57.083668,192.553116 54.854778,197.788696 
	C53.252453,201.552475 51.880348,205.597244 51.430054,209.631042 
	C50.442776,218.475174 48.919788,227.506348 49.763210,236.254074 
	C51.284313,252.030457 58.380028,265.535583 70.450317,276.771423 
	C67.279053,280.113861 64.107788,283.456299 60.253025,286.948242 
	C55.100483,292.556824 49.947937,298.165436 44.123089,303.906433 
	C42.794918,305.083832 41.466743,306.261200 40.138569,307.438599 
	C40.404797,307.759766 40.671024,308.080902 40.937252,308.402069 
	C42.488995,307.179260 44.040737,305.956451 46.103130,304.294373 
	C51.094116,299.255920 56.085102,294.217468 61.673611,288.860840 
	C65.134460,285.251373 68.595314,281.641907 72.746124,278.120361 
	C84.374023,286.838501 97.869881,291.426331 112.116982,295.971436 
	C111.664558,297.647827 111.477547,299.628204 110.633072,301.270538 
	C102.265282,317.544312 97.234428,335.026001 92.560417,352.555573 
	C89.075356,365.626099 85.343582,378.906036 84.298798,392.293854 
	C82.220284,418.927887 84.375145,445.333618 95.082932,470.409882 
	C95.799057,472.087036 95.533981,474.776001 94.667542,476.445435 
	C84.715111,495.621368 80.430496,515.885315 82.982117,537.373474 
	C85.391449,557.663330 94.722160,574.396973 110.397430,587.442017 
	C113.087997,589.681152 113.989861,591.469788 113.117081,594.946655 
	C110.430283,605.650085 117.846695,615.375488 128.942703,615.942139 
	C133.760498,616.188171 138.626556,616.349365 143.423004,615.960632 
	C151.613907,615.296814 159.062042,613.130859 162.544495,604.363586 
	C163.104568,602.953613 164.846359,602.013062 166.041916,600.855469 
	C166.814682,602.321167 167.621841,603.769958 168.353333,605.255920 
	C170.076447,608.756226 170.894440,613.329712 173.631317,615.583374 
	C181.229019,621.839661 200.231735,621.586548 209.793945,616.079529 
	C217.291016,615.343994 220.868027,609.958313 224.802078,603.883057 
	C225.543549,603.890930 226.285034,603.898865 227.350479,604.449219 
	C228.236847,604.937622 229.123215,605.426025 230.563644,606.409241 
	C234.712204,607.147156 238.862808,608.512451 243.008957,608.499023 
	C253.268906,608.465759 261.500183,602.596863 269.259979,597.035400 
	C278.767456,590.221375 284.673462,579.891052 291.727997,569.878723 
	C293.086761,566.914062 294.445526,563.949463 296.174622,560.317810 
	C298.603119,552.136536 301.441620,544.050659 303.373322,535.753723 
	C307.190460,519.358398 307.791321,502.779846 304.614319,486.153717 
	C304.614319,486.153717 304.756317,486.094452 304.886108,485.820679 
	C304.886108,485.820679 304.845367,485.520477 304.993317,484.814056 
	C304.448883,482.512390 303.904419,480.210693 303.267181,477.120209 
	C301.110992,469.086182 298.954773,461.052124 296.870453,452.239197 
	C295.998077,448.796204 295.125732,445.353241 294.171906,440.986786 
	C294.393341,426.373901 294.568726,411.760132 294.845276,397.148315 
	C295.534973,360.707062 296.270294,324.266693 296.989319,287.825989 
	C297.015594,286.494354 296.968079,285.152466 297.115631,283.833344 
	C298.717102,269.515350 300.298218,255.194763 301.991547,240.887512 
	C303.430298,228.731461 304.748932,216.552353 306.591583,204.455185 
	C308.831482,189.750610 312.023163,175.181519 313.962585,160.443192 
	C316.115936,144.079025 321.428070,128.700180 326.661957,113.216949 
	C331.035492,100.278732 334.954987,87.187019 339.685791,73.730522 
	C341.110077,68.819489 342.534363,63.908451 344.391083,58.291260 
	C344.365814,54.815643 344.340546,51.340031 344.271057,47.088928 
	C342.972534,39.490353 337.937775,35.284824 330.537994,32.071686 
	C324.492310,32.002247 318.380341,30.766357 312.848419,34.846718 
	C305.930634,39.949238 299.974396,45.683273 296.864288,53.940506 
	C295.603363,57.288181 294.064941,60.536110 292.555511,63.784210 
	C290.671478,67.838394 288.488556,71.763931 286.784485,75.889481 
	C282.290680,86.769096 280.252136,98.226311 278.094910,109.781013 
	C274.494324,129.066772 268.500092,147.923355 265.254944,167.252960 
	C261.779266,187.955551 260.273682,208.991394 257.985870,229.890274 
	C255.299072,254.434052 252.593018,278.976501 250.093887,303.539734 
	C248.533295,318.878418 247.360031,334.256348 245.943420,349.610229 
	C245.826050,350.882324 245.175842,352.105255 244.815704,353.219604 
	C241.574005,347.397797 238.871582,341.847290 235.544968,336.700256 
	C225.373077,320.961945 214.924591,305.402679 204.661514,289.722839 
	C200.776459,283.787292 200.950195,283.627014 207.033310,279.941803 
	C216.312164,274.320526 225.492386,268.860840 232.359482,259.842407 
	C241.170731,248.270752 246.615250,235.827621 247.193039,221.277298 
	C247.565948,211.886017 245.755783,202.864594 243.000900,193.423370 
	C242.734268,192.923706 242.467636,192.424057 242.116791,191.208145 
	C241.187836,189.092865 240.258865,186.977600 239.288681,184.092712 
	C240.136322,181.477524 240.894577,178.829346 241.845688,176.252350 
	C249.868088,154.515793 252.663712,131.899124 251.718552,108.966576 
	C250.970535,90.817436 249.405167,72.619202 246.721680,54.664116 
	C245.149338,44.143505 243.430969,33.097008 236.295242,24.198448 
	C228.427902,14.387553 223.640671,14.867661 216.772873,22.535410 
	C216.662231,22.658951 216.559280,22.791758 216.468918,22.930758 
	C208.478180,35.221302 200.488998,47.512878 192.145004,60.040848 
	C191.974030,60.285652 191.905563,60.556381 191.332581,61.189014 
	C189.796112,64.189514 188.259644,67.190018 186.157135,70.657539 
	C184.302277,73.733101 182.447433,76.808670 180.061188,80.255959 
	C177.433945,85.175438 174.806702,90.094917 171.860809,95.601097 
	C170.790665,97.488297 169.720505,99.375496 168.083267,101.697266 
	C166.706711,104.427879 165.330139,107.158485 163.391052,110.267189 
	C162.859665,111.491096 162.328278,112.714996 161.347946,114.022385 
	C161.135315,114.399460 160.922668,114.776535 160.129837,115.689682 
	C160.014008,116.596107 159.898193,117.502533 159.749405,118.476341 
	C159.749405,118.476341 159.681091,118.507362 158.582397,118.671021 
M31.424257,278.990875 
	C40.075542,275.557068 48.726830,272.123291 58.011471,268.438110 
	C49.356796,267.226654 24.130171,277.098846 19.584362,283.630859 
	C23.764585,281.915222 27.210665,280.500885 31.424257,278.990875 
z"/>
<path fill="#010101" opacity="1.000000" stroke="none" 
	d="
M70.579079,276.051300 
	C58.380028,265.535583 51.284313,252.030457 49.763210,236.254074 
	C48.919788,227.506348 50.442776,218.475174 51.430054,209.631042 
	C51.880348,205.597244 53.252453,201.552475 54.854778,197.788696 
	C57.083668,192.553116 53.319218,188.980927 52.379509,184.197723 
	C53.881077,182.763596 54.999474,181.854828 56.460854,181.141327 
	C58.677517,185.723206 61.406681,185.518585 64.971191,182.973358 
	C66.511055,183.797134 67.685783,184.438004 68.806557,185.494995 
	C63.817589,198.544983 63.938164,210.890900 71.732544,222.354523 
	C83.329155,239.410294 99.520569,240.768845 110.993393,226.366241 
	C120.522560,214.403671 120.186424,200.707550 115.110085,186.854126 
	C114.587662,185.428406 114.187675,183.957855 113.896652,182.364594 
	C114.056793,182.033875 114.051155,181.846664 114.045532,181.659470 
	C113.869362,181.876358 113.693192,182.093231 113.191055,182.518219 
	C111.633026,181.238800 110.400970,179.751266 109.526245,178.123047 
	C109.754433,177.008759 109.762695,175.990585 109.464378,175.071945 
	C108.999924,173.641663 108.327217,172.279007 107.742767,170.887711 
	C108.100479,170.292297 108.458199,169.696899 108.815918,169.101501 
	C106.157402,169.867767 103.498894,170.634048 100.601524,171.369537 
	C100.362663,171.338760 99.999184,171.022720 99.874084,170.739090 
	C98.819466,170.350952 97.889954,170.246429 96.503067,170.128937 
	C89.624245,169.516907 83.446136,170.052536 77.982590,173.599487 
	C76.871017,172.492020 75.773682,171.771637 74.817032,170.714508 
	C76.613319,167.906891 78.664009,165.611008 79.850334,162.932327 
	C83.391571,154.936279 87.009758,146.933136 89.849632,138.675446 
	C97.934746,115.165756 100.834641,91.308395 93.513458,66.953491 
	C93.380486,65.953110 92.939270,65.012596 92.330383,63.883202 
	C92.167427,63.526016 92.172157,63.357704 92.593704,63.148575 
	C95.285858,63.742405 97.561180,64.377052 99.836502,65.011696 
	C100.215622,65.785782 100.594742,66.559875 100.640274,67.704468 
	C99.704834,69.296837 99.102974,70.518700 98.501122,71.740562 
	C100.128624,71.773323 101.756126,71.806076 103.383629,71.838837 
	C109.985313,84.903328 116.973297,97.791145 123.056435,111.092781 
	C127.297310,120.366066 130.231796,130.232285 133.939148,139.759995 
	C134.381805,140.897583 135.891068,141.953949 137.130737,142.357620 
	C138.481934,142.797607 140.125046,142.234192 141.588715,142.454651 
	C147.216553,143.302277 150.510681,141.182144 151.683167,135.111145 
	C152.343430,134.196289 152.408737,133.521255 152.474045,132.846207 
	C152.537186,132.679733 152.600327,132.513260 153.229279,132.177734 
	C154.734222,131.783661 155.673355,131.558655 156.612488,131.333633 
	C156.596939,131.074219 156.581406,130.814804 156.565872,130.555389 
	C155.728516,130.374893 154.891159,130.194382 154.053802,130.013885 
	C154.418930,128.468277 154.784058,126.922661 155.786240,125.184097 
	C157.610794,125.666809 158.798279,126.342484 160.044662,127.161102 
	C160.196884,127.352303 160.290192,127.400558 160.383514,127.448814 
	C160.261749,127.294418 160.139984,127.140022 160.020767,126.583786 
	C160.452682,123.715736 161.589233,121.045486 158.151703,119.694946 
	C158.295273,119.353638 158.438843,119.012329 159.308716,118.944901 
	C160.767838,119.342697 161.500656,119.466614 162.233475,119.590530 
	C162.267792,119.366142 162.302109,119.141754 162.336426,118.917366 
	C161.485077,118.747894 160.633728,118.578430 159.782379,118.408958 
	C159.898193,117.502533 160.014008,116.596107 160.531982,115.760674 
	C162.085938,115.693893 163.237732,115.556114 164.389526,115.418343 
	C164.320938,114.990646 164.252350,114.562950 164.183746,114.135254 
	C163.388138,114.069801 162.592514,114.004356 161.796890,113.938904 
	C162.328278,112.714996 162.859665,111.491096 163.879013,110.385689 
	C165.621994,111.020195 166.876999,111.536194 168.650360,112.265320 
	C168.650360,108.047379 168.650360,104.655045 168.650360,101.262695 
	C169.720505,99.375496 170.790665,97.488297 172.376587,95.303093 
	C174.957321,94.544983 177.000824,94.524803 176.530853,91.118889 
	C176.376434,89.999878 179.131104,88.334785 180.735229,87.166145 
	C181.898788,86.318466 184.541855,85.735260 184.487091,85.278519 
	C184.206467,82.938370 184.663025,79.611839 180.592575,79.884232 
	C182.447433,76.808670 184.302277,73.733101 186.515640,70.822693 
	C188.458313,71.646461 190.042480,72.305077 192.564285,73.353516 
	C191.537643,70.055763 190.985321,68.281624 190.159271,65.628220 
	C192.971039,66.598595 195.092941,67.330894 197.178314,68.465134 
	C196.401947,74.064491 194.444931,79.428955 195.131363,84.430649 
	C198.231705,107.021576 202.087662,129.508667 205.651855,152.036240 
	C206.277420,155.990250 208.120544,158.788132 211.605698,161.162262 
	C219.307205,166.408630 226.599167,172.256165 234.026947,178.261780 
	C233.289932,185.038986 233.289932,185.038986 239.329895,184.862320 
	C240.258865,186.977600 241.187836,189.092865 241.903397,191.705444 
	C242.068893,192.805984 242.447784,193.409210 242.826675,194.012451 
	C245.755783,202.864594 247.565948,211.886017 247.193039,221.277298 
	C246.615250,235.827621 241.170731,248.270752 232.359482,259.842407 
	C225.492386,268.860840 216.312164,274.320526 207.033310,279.941803 
	C200.950195,283.627014 200.776459,283.787292 204.661514,289.722839 
	C214.924591,305.402679 225.373077,320.961945 235.544968,336.700256 
	C238.871582,341.847290 241.574005,347.397797 244.815704,353.219604 
	C245.175842,352.105255 245.826050,350.882324 245.943420,349.610229 
	C247.360031,334.256348 248.533295,318.878418 250.093887,303.539734 
	C252.593018,278.976501 255.299072,254.434052 257.985870,229.890274 
	C260.273682,208.991394 261.779266,187.955551 265.254944,167.252960 
	C268.500092,147.923355 274.494324,129.066772 278.094910,109.781013 
	C280.252136,98.226311 282.290680,86.769096 286.784485,75.889481 
	C288.488556,71.763931 290.671478,67.838394 292.555511,63.784210 
	C294.064941,60.536110 295.603363,57.288181 296.864288,53.940506 
	C299.974396,45.683273 305.930634,39.949238 312.848419,34.846718 
	C318.380341,30.766357 324.492310,32.002247 330.733490,32.662373 
	C330.591980,37.866283 332.749115,40.310520 335.996582,38.995575 
	C336.000000,38.999939 336.008545,39.006676 336.145447,39.317303 
	C337.473480,42.613052 341.501923,44.708290 338.251129,49.347649 
	C340.927887,48.692940 342.621582,48.278683 344.315277,47.864418 
	C344.340546,51.340031 344.365814,54.815643 343.817749,58.685753 
	C341.496948,62.038952 339.315948,64.842033 338.175781,68.018692 
	C337.558746,69.737770 338.717712,72.094307 339.075562,74.163284 
	C334.954987,87.187019 331.035492,100.278732 326.661957,113.216949 
	C321.428070,128.700180 316.115936,144.079025 313.962585,160.443192 
	C312.023163,175.181519 308.831482,189.750610 306.591583,204.455185 
	C304.748932,216.552353 303.430298,228.731461 301.991547,240.887512 
	C300.298218,255.194763 298.717102,269.515350 297.115631,283.833344 
	C296.968079,285.152466 297.015594,286.494354 296.989319,287.825989 
	C296.270294,324.266693 295.534973,360.707062 294.845276,397.148315 
	C294.568726,411.760132 294.393341,426.373901 293.906250,441.617737 
	C291.718262,447.369171 292.744019,450.867157 296.798584,453.018097 
	C298.954773,461.052124 301.110992,469.086182 302.983032,477.530579 
	C296.647156,478.699097 303.750732,480.451111 303.386993,480.757080 
	C301.681335,482.005280 301.018158,482.490601 300.183350,483.101501 
	C302.032166,484.060791 303.438782,484.790619 304.845367,485.520447 
	C304.845367,485.520477 304.886108,485.820679 304.472351,485.968201 
	C303.848602,486.222534 303.638672,486.329346 303.428741,486.436157 
	C303.843964,486.341949 304.259186,486.247711 304.674438,486.153503 
	C307.791321,502.779846 307.190460,519.358398 303.373322,535.753723 
	C301.441620,544.050659 298.603119,552.136536 295.628387,560.646851 
	C291.133453,561.393372 288.936646,566.551575 291.125488,570.266418 
	C284.673462,579.891052 278.767456,590.221375 269.259979,597.035400 
	C261.500183,602.596863 253.268906,608.465759 243.008957,608.499023 
	C238.862808,608.512451 234.712204,607.147156 230.255890,605.847229 
	C228.974243,604.825745 228.000366,604.366272 227.026505,603.906738 
	C226.285034,603.898865 225.543549,603.890930 224.276093,603.669800 
	C218.814011,600.452637 218.257477,600.801819 217.801956,606.224304 
	C217.696548,607.479004 216.287415,608.718750 215.285110,609.783508 
	C213.263840,611.930725 211.109909,613.953064 209.010712,616.026855 
	C200.231735,621.586548 181.229019,621.839661 173.631317,615.583374 
	C170.894440,613.329712 170.076447,608.756226 168.353333,605.255920 
	C167.621841,603.769958 166.814682,602.321167 166.041901,600.855469 
	C164.846359,602.013062 163.104568,602.953613 162.544495,604.363586 
	C159.062042,613.130859 151.613907,615.296814 143.423004,615.960632 
	C138.626556,616.349365 133.760498,616.188171 128.942703,615.942139 
	C117.846695,615.375488 110.430283,605.650085 113.117081,594.946655 
	C113.989861,591.469788 113.087997,589.681152 110.397430,587.442017 
	C94.722160,574.396973 85.391449,557.663330 82.982117,537.373474 
	C80.430496,515.885315 84.715111,495.621368 94.667542,476.445435 
	C95.533981,474.776001 95.799057,472.087036 95.082932,470.409882 
	C84.375145,445.333618 82.220284,418.927887 84.298798,392.293854 
	C85.343582,378.906036 89.075356,365.626099 92.560417,352.555573 
	C97.234428,335.026001 102.265282,317.544312 110.633072,301.270538 
	C111.477547,299.628204 111.664558,297.647827 112.116982,295.971436 
	C97.869881,291.426331 84.374023,286.838501 72.195068,277.925842 
	C71.289032,277.171295 70.934052,276.611298 70.579079,276.051300 
M202.600388,223.043289 
	C207.402008,218.014511 208.274750,211.551315 208.900482,205.102798 
	C210.135468,192.375488 207.182739,181.081726 197.233994,172.233612 
	C189.017624,164.926193 176.925598,164.560379 168.635468,171.556351 
	C152.917633,184.820541 152.474121,210.698334 167.725677,224.641998 
	C178.669647,234.647522 185.731003,235.555847 196.937836,228.196533 
	C198.850342,226.940628 200.401932,225.135132 202.600388,223.043289 
M122.109589,226.799347 
	C125.015511,226.447144 127.773094,226.065414 128.329819,230.291077 
	C128.454849,231.240082 130.377426,232.681519 131.352188,232.591614 
	C132.402878,232.494751 134.017349,230.956833 134.155426,229.888565 
	C134.631882,226.202408 137.262711,225.478607 140.052902,225.145416 
	C142.202713,224.888702 144.119904,224.833298 143.891953,221.964813 
	C143.691330,219.440033 142.823242,217.494263 139.794846,217.570526 
	C135.350342,217.682495 130.896973,217.642944 126.462921,217.918243 
	C121.004051,218.257141 119.342216,221.192871 122.109589,226.799347 
M237.641312,189.461990 
	C236.993088,189.106644 236.344879,188.751297 235.696655,188.395950 
	C235.566910,188.724792 235.437180,189.053635 235.307434,189.382477 
	C236.104660,189.594009 236.901886,189.805557 237.641312,189.461990 
M174.260223,103.813606 
	C174.374786,103.972046 174.489349,104.130486 174.603928,104.288925 
	C174.580734,104.068237 174.557541,103.847549 174.260223,103.813606 
M281.262695,574.813660 
	C281.377838,574.972717 281.492981,575.131775 281.608063,575.290833 
	C281.584778,575.069214 281.561493,574.847595 281.262695,574.813660 
M239.595078,189.514923 
	C239.595078,189.514923 239.477081,189.587845 239.595078,189.514923 
M297.485077,482.587219 
	C297.485077,482.587219 297.418793,482.476593 297.485077,482.587219 
M301.482819,488.585724 
	C301.482819,488.585724 301.417236,488.476685 301.482819,488.585724 
M285.407227,571.482300 
	C285.407227,571.482300 285.524506,571.410522 285.407227,571.482300 
M330.590729,40.515800 
	C330.590729,40.515800 330.476807,40.584774 330.590729,40.515800 
z"/>
<path fill="#101010" opacity="1.000000" stroke="none" 
	d="
M197.214844,68.063194 
	C195.092941,67.330894 192.971039,66.598595 190.159271,65.628220 
	C190.985321,68.281624 191.537643,70.055763 192.564285,73.353516 
	C190.042480,72.305077 188.458313,71.646461 186.798660,70.589188 
	C188.259644,67.190018 189.796112,64.189514 191.664932,61.369904 
	C193.511017,63.870338 193.511017,63.870338 195.348526,60.281544 
	C194.361359,60.116199 193.430542,59.960289 192.499725,59.804382 
	C200.488998,47.512878 208.478180,35.221302 216.468918,22.930758 
	C216.559280,22.791758 216.662231,22.658951 216.772873,22.535410 
	C223.640671,14.867661 228.427902,14.387553 236.295242,24.198448 
	C243.430969,33.097008 245.149338,44.143505 246.721680,54.664116 
	C249.405167,72.619202 250.970535,90.817436 251.718552,108.966576 
	C252.663712,131.899124 249.868088,154.515793 241.845688,176.252350 
	C240.894577,178.829346 240.136322,181.477524 239.309296,184.477509 
	C233.289932,185.038986 233.289932,185.038986 234.388306,178.450470 
	C235.432404,178.714920 236.083878,179.193985 237.476242,180.217865 
	C239.093048,174.066696 241.085205,168.458023 241.981522,162.679382 
	C244.035049,149.440445 246.461334,136.158646 247.050812,122.819771 
	C247.729614,107.459717 246.872742,92.005753 246.118317,76.620255 
	C245.780304,69.727142 244.556656,62.777733 242.860489,56.075150 
	C240.521255,46.831329 237.744034,37.649891 234.378815,28.734491 
	C232.682846,24.241379 226.881271,22.272350 224.642776,24.772053 
	C218.642151,31.472916 212.419342,38.156887 207.619293,45.697113 
	C203.241791,52.573582 200.613892,60.563839 197.214844,68.063194 
z"/>
<path fill="#0F0F0F" opacity="1.000000" stroke="none" 
	d="
M56.117867,180.946045 
	C54.999474,181.854828 53.881077,182.763596 52.405304,183.828171 
	C45.790703,173.073044 42.125656,161.266525 41.213066,148.807114 
	C39.862366,130.366241 41.287380,112.113457 45.621910,94.029884 
	C49.263111,78.838844 51.694324,63.356888 55.372059,48.175934 
	C56.818127,42.206852 59.895206,36.547928 62.787777,31.040983 
	C65.126083,26.589260 68.926788,25.817959 72.986153,28.586853 
	C75.393387,30.228828 77.769341,32.232243 79.439438,34.584320 
	C86.401787,44.389763 93.091110,54.389072 99.858528,64.664490 
	C97.561180,64.377052 95.285858,63.742405 92.416183,62.889778 
	C90.471886,60.222778 89.293678,57.658211 87.738716,55.347126 
	C83.618088,49.222782 79.871552,42.720108 74.948372,37.301865 
	C70.906868,32.853966 65.835426,34.263462 64.056427,39.904427 
	C59.456535,54.490059 54.333538,69.018036 51.258854,83.947861 
	C48.034187,99.605972 46.926754,115.701935 44.937222,131.611938 
	C43.582336,142.446823 45.125378,153.079865 48.310158,163.355377 
	C50.196323,169.440979 53.468769,175.096909 56.117867,180.946045 
z"/>
<path fill="#1E1E1E" opacity="1.000000" stroke="none" 
	d="
M31.040501,279.038727 
	C27.210665,280.500885 23.764585,281.915222 19.584362,283.630859 
	C24.130171,277.098846 49.356796,267.226654 58.011471,268.438110 
	C48.726830,272.123291 40.075542,275.557068 31.040501,279.038727 
z"/>
<path fill="#0F0F0F" opacity="1.000000" stroke="none" 
	d="
M344.293152,47.476677 
	C342.621582,48.278683 340.927887,48.692940 338.251129,49.347649 
	C341.501923,44.708290 337.473480,42.613052 336.285583,39.261230 
	C336.190247,38.926762 336.091675,38.958988 335.993134,38.991211 
	C332.749115,40.310520 330.591980,37.866283 331.047089,32.955284 
	C337.937775,35.284824 342.972534,39.490353 344.293152,47.476677 
z"/>
<path fill="#161616" opacity="1.000000" stroke="none" 
	d="
M209.402328,616.053223 
	C211.109909,613.953064 213.263840,611.930725 215.285110,609.783508 
	C216.287415,608.718750 217.696548,607.479004 217.801956,606.224304 
	C218.257477,600.801819 218.814011,600.452637 223.889618,603.767944 
	C220.868027,609.958313 217.291016,615.343994 209.402328,616.053223 
z"/>
<path fill="#111111" opacity="1.000000" stroke="none" 
	d="
M180.326874,80.070099 
	C184.663025,79.611839 184.206467,82.938370 184.487091,85.278519 
	C184.541855,85.735260 181.898788,86.318466 180.735229,87.166145 
	C179.131104,88.334785 176.376434,89.999878 176.530853,91.118889 
	C177.000824,94.524803 174.957321,94.544983 172.535919,95.009743 
	C174.806702,90.094917 177.433945,85.175438 180.326874,80.070099 
z"/>
<path fill="#141414" opacity="1.000000" stroke="none" 
	d="
M44.795395,303.774017 
	C49.947937,298.165436 55.100483,292.556824 60.621155,287.270020 
	C61.018227,288.120880 61.047161,288.649963 61.076096,289.179016 
	C56.085102,294.217468 51.094116,299.255920 45.653320,304.270142 
	C45.067478,304.088593 44.931438,303.931305 44.795395,303.774017 
z"/>
<path fill="#0D0D0D" opacity="1.000000" stroke="none" 
	d="
M339.380676,73.946899 
	C338.717712,72.094307 337.558746,69.737770 338.175781,68.018692 
	C339.315948,64.842033 341.496948,62.038952 343.601532,59.038834 
	C342.534363,63.908451 341.110077,68.819489 339.380676,73.946899 
z"/>
<path fill="#101010" opacity="1.000000" stroke="none" 
	d="
M168.366821,101.479980 
	C168.650360,104.655045 168.650360,108.047379 168.650360,112.265320 
	C166.876999,111.536194 165.621994,111.020195 164.160278,110.196640 
	C165.330139,107.158485 166.706711,104.427879 168.366821,101.479980 
M167.482513,106.595985 
	C167.482513,106.595985 167.411530,106.478569 167.482513,106.595985 
z"/>
<path fill="#1F1F1F" opacity="1.000000" stroke="none" 
	d="
M61.374855,289.019928 
	C61.047161,288.649963 61.018227,288.120880 60.962906,287.195282 
	C64.107788,283.456299 67.279053,280.113861 70.514694,276.411377 
	C70.934052,276.611298 71.289032,277.171295 71.850090,277.881897 
	C68.595314,281.641907 65.134460,285.251373 61.374855,289.019928 
z"/>
<path fill="#101010" opacity="1.000000" stroke="none" 
	d="
M291.426758,570.072571 
	C288.936646,566.551575 291.133453,561.393372 295.443237,560.980408 
	C294.445526,563.949463 293.086761,566.914062 291.426758,570.072571 
z"/>
<path fill="#141414" opacity="1.000000" stroke="none" 
	d="
M296.834534,452.628662 
	C292.744019,450.867157 291.718262,447.369171 293.946960,442.079468 
	C295.125732,445.353241 295.998077,448.796204 296.834534,452.628662 
z"/>
<path fill="#0D0D0D" opacity="1.000000" stroke="none" 
	d="
M157.979889,119.878273 
	C161.589233,121.045486 160.452682,123.715736 160.011780,126.591034 
	C160.000229,127.000122 159.985764,127.018158 159.985764,127.018158 
	C158.798279,126.342484 157.610794,125.666809 156.056030,124.972725 
	C156.395203,123.323410 157.101639,121.692505 157.979889,119.878273 
z"/>
<path fill="#0F0F0F" opacity="1.000000" stroke="none" 
	d="
M304.919342,485.167236 
	C303.438782,484.790619 302.032166,484.060791 300.183350,483.101501 
	C301.018158,482.490601 301.681335,482.005280 303.386993,480.757080 
	C303.750732,480.451111 296.647156,478.699097 303.029419,477.924988 
	C303.904419,480.210693 304.448883,482.512390 304.919342,485.167236 
z"/>
<path fill="#0F0F0F" opacity="1.000000" stroke="none" 
	d="
M103.289658,71.520012 
	C101.756126,71.806076 100.128624,71.773323 98.501122,71.740562 
	C99.102974,70.518700 99.704834,69.296837 100.665329,68.034271 
	C101.747879,69.062775 102.471786,70.131981 103.289658,71.520012 
z"/>
<path fill="#010101" opacity="1.000000" stroke="none" 
	d="
M192.322357,59.922615 
	C193.430542,59.960289 194.361359,60.116199 195.348526,60.281544 
	C193.511017,63.870338 193.511017,63.870338 191.968445,61.201912 
	C191.905563,60.556381 191.974030,60.285652 192.322357,59.922615 
z"/>
<path fill="#141414" opacity="1.000000" stroke="none" 
	d="
M45.397995,304.489746 
	C44.040737,305.956451 42.488995,307.179260 40.937252,308.402069 
	C40.671024,308.080902 40.404797,307.759766 40.138569,307.438599 
	C41.466743,306.261200 42.794918,305.083832 44.459244,303.840210 
	C44.931438,303.931305 45.067478,304.088593 45.397995,304.489746 
z"/>
<path fill="#101010" opacity="1.000000" stroke="none" 
	d="
M161.572418,113.980644 
	C162.592514,114.004356 163.388138,114.069801 164.183746,114.135254 
	C164.252350,114.562950 164.320938,114.990646 164.389526,115.418343 
	C163.237732,115.556114 162.085938,115.693893 160.822083,115.492638 
	C160.922668,114.776535 161.135315,114.399460 161.572418,113.980644 
z"/>
<path fill="#0D0D0D" opacity="1.000000" stroke="none" 
	d="
M153.858429,130.226440 
	C154.891159,130.194382 155.728516,130.374893 156.565872,130.555389 
	C156.581406,130.814804 156.596939,131.074219 156.612488,131.333633 
	C155.673355,131.558655 154.734222,131.783661 153.434509,132.006836 
	C153.270309,131.483002 153.466690,130.961014 153.858429,130.226440 
z"/>
<path fill="#161616" opacity="1.000000" stroke="none" 
	d="
M227.188492,604.177979 
	C228.000366,604.366272 228.974243,604.825745 229.978851,605.599854 
	C229.123215,605.426025 228.236847,604.937622 227.188492,604.177979 
z"/>
<path fill="#101010" opacity="1.000000" stroke="none" 
	d="
M242.913788,193.717911 
	C242.447784,193.409210 242.068893,192.805984 241.945496,192.063568 
	C242.467636,192.424057 242.734268,192.923706 242.913788,193.717911 
z"/>
<path fill="#0D0D0D" opacity="1.000000" stroke="none" 
	d="
M159.765900,118.442650 
	C160.633728,118.578430 161.485077,118.747894 162.336426,118.917366 
	C162.302109,119.141754 162.267792,119.366142 162.233475,119.590530 
	C161.500656,119.466614 160.767838,119.342697 159.858063,118.863068 
	C159.681091,118.507362 159.749405,118.476341 159.765900,118.442650 
z"/>
<path fill="#0D0D0D" opacity="1.000000" stroke="none" 
	d="
M152.277344,133.043579 
	C152.408737,133.521255 152.343430,134.196289 151.932434,134.853973 
	C151.751389,134.304718 151.916016,133.772827 152.277344,133.043579 
z"/>
<path fill="#0F0F0F" opacity="1.000000" stroke="none" 
	d="
M304.644379,486.153625 
	C304.259186,486.247711 303.843964,486.341949 303.428741,486.436157 
	C303.638672,486.329346 303.848602,486.222534 304.407440,486.105103 
	C304.756317,486.094452 304.614319,486.153717 304.644379,486.153625 
z"/>
<path fill="#FDFDFD" opacity="1.000000" stroke="none" 
	d="
M197.178299,68.465134 
	C200.613892,60.563839 203.241791,52.573582 207.619293,45.697113 
	C212.419342,38.156887 218.642151,31.472916 224.642776,24.772053 
	C226.881271,22.272350 232.682846,24.241379 234.378815,28.734491 
	C237.744034,37.649891 240.521255,46.831329 242.860489,56.075150 
	C244.556656,62.777733 245.780304,69.727142 246.118317,76.620255 
	C246.872742,92.005753 247.729614,107.459717 247.050812,122.819771 
	C246.461334,136.158646 244.035049,149.440445 241.981522,162.679382 
	C241.085205,168.458023 239.093048,174.066696 237.476242,180.217865 
	C236.083878,179.193985 235.432404,178.714920 234.419556,178.047150 
	C226.599167,172.256165 219.307205,166.408630 211.605698,161.162262 
	C208.120544,158.788132 206.277420,155.990250 205.651855,152.036240 
	C202.087662,129.508667 198.231705,107.021576 195.131363,84.430649 
	C194.444931,79.428955 196.401947,74.064491 197.178299,68.465134 
z"/>
<path fill="#FDFDFD" opacity="1.000000" stroke="none" 
	d="
M56.460854,181.141327 
	C53.468769,175.096909 50.196323,169.440979 48.310158,163.355377 
	C45.125378,153.079865 43.582336,142.446823 44.937222,131.611938 
	C46.926754,115.701935 48.034187,99.605972 51.258854,83.947861 
	C54.333538,69.018036 59.456535,54.490059 64.056427,39.904427 
	C65.835426,34.263462 70.906868,32.853966 74.948372,37.301865 
	C79.871552,42.720108 83.618088,49.222782 87.738716,55.347126 
	C89.293678,57.658211 90.471886,60.222778 91.999359,62.930595 
	C92.172157,63.357704 92.167427,63.526016 92.389656,64.257790 
	C92.812813,65.551956 93.009018,66.282654 93.205223,67.013351 
	C100.834641,91.308395 97.934746,115.165756 89.849632,138.675446 
	C87.009758,146.933136 83.391571,154.936279 79.850334,162.932327 
	C78.664009,165.611008 76.613319,167.906891 74.541916,170.859833 
	C72.329247,173.635605 70.532394,175.929337 68.465355,178.373962 
	C67.714607,179.191940 67.234039,179.859009 66.459610,180.656830 
	C65.645866,181.455200 65.125961,182.122818 64.606064,182.790436 
	C61.406681,185.518585 58.677517,185.723206 56.460854,181.141327 
z"/>
<path fill="#FCFCFC" opacity="1.000000" stroke="none" 
	d="
M109.168907,178.263748 
	C110.400970,179.751266 111.633026,181.238800 113.264236,182.546402 
	C113.663399,182.366486 113.730881,182.508102 113.730881,182.508102 
	C114.187675,183.957855 114.587662,185.428406 115.110085,186.854126 
	C120.186424,200.707550 120.522560,214.403671 110.993393,226.366241 
	C99.520569,240.768845 83.329155,239.410294 71.732544,222.354523 
	C63.938164,210.890900 63.817589,198.544983 68.982346,185.326843 
	C69.463982,184.160126 69.715874,183.577682 70.248505,182.838623 
	C70.900696,182.169662 71.272141,181.657303 71.862061,180.928589 
	C74.052635,178.470352 76.024727,176.228470 77.996811,173.986588 
	C83.446136,170.052536 89.624245,169.516907 96.703369,170.403473 
	C98.240417,170.801559 99.119804,170.912140 99.999184,171.022720 
	C99.999184,171.022720 100.362663,171.338760 100.715446,171.673584 
	C103.768456,174.093506 106.468681,176.178635 109.168907,178.263748 
M108.451424,208.696167 
	C108.058403,203.474609 108.212357,198.124542 107.029083,193.088669 
	C106.481949,190.760132 103.325645,189.044662 101.352272,187.051254 
	C99.501259,188.981476 96.470802,190.678070 96.032997,192.888229 
	C94.963547,198.287064 94.598579,203.951019 94.904884,209.455124 
	C95.130257,213.505066 96.536026,218.663666 101.474144,218.691299 
	C106.442955,218.719116 107.160469,213.506760 108.451424,208.696167 
z"/>
<path fill="#FBFBFB" opacity="1.000000" stroke="none" 
	d="
M202.360321,223.313416 
	C200.401932,225.135132 198.850342,226.940628 196.937836,228.196533 
	C185.731003,235.555847 178.669647,234.647522 167.725677,224.641998 
	C152.474121,210.698334 152.917633,184.820541 168.635468,171.556351 
	C176.925598,164.560379 189.017624,164.926193 197.233994,172.233612 
	C207.182739,181.081726 210.135468,192.375488 208.900482,205.102798 
	C208.274750,211.551315 207.402008,218.014511 202.360321,223.313416 
M178.342865,188.583817 
	C171.485474,194.024673 169.794113,205.991989 174.764511,213.902634 
	C178.217728,219.398605 183.190399,219.414902 186.317398,213.649826 
	C190.142700,206.597351 190.274780,199.169556 186.115067,192.316879 
	C184.876831,190.277008 181.447098,189.567429 178.342865,188.583817 
z"/>
<path fill="#F2F2F2" opacity="1.000000" stroke="none" 
	d="
M121.729950,226.666473 
	C119.342216,221.192871 121.004051,218.257141 126.462921,217.918243 
	C130.896973,217.642944 135.350342,217.682495 139.794846,217.570526 
	C142.823242,217.494263 143.691330,219.440033 143.891953,221.964813 
	C144.119904,224.833298 142.202713,224.888702 140.052902,225.145416 
	C137.262711,225.478607 134.631882,226.202408 134.155426,229.888565 
	C134.017349,230.956833 132.402878,232.494751 131.352188,232.591614 
	C130.377426,232.681519 128.454849,231.240082 128.329819,230.291077 
	C127.773094,226.065414 125.015511,226.447144 121.729950,226.666473 
z"/>
<path fill="#191919" opacity="1.000000" stroke="none" 
	d="
M77.982582,173.599487 
	C76.024727,176.228470 74.052635,178.470352 71.452538,180.793884 
	C70.128197,179.991379 69.431870,179.107208 68.735535,178.223053 
	C70.532394,175.929337 72.329247,173.635605 74.401230,171.196564 
	C75.773682,171.771637 76.871017,172.492020 77.982582,173.599487 
M75.478210,173.598114 
	C75.478210,173.598114 75.397636,173.468353 75.478210,173.598114 
z"/>
<path fill="#171717" opacity="1.000000" stroke="none" 
	d="
M109.526245,178.123047 
	C106.468681,176.178635 103.768456,174.093506 100.954308,171.704361 
	C103.498894,170.634048 106.157402,169.867767 108.815918,169.101501 
	C108.458199,169.696899 108.100479,170.292297 107.742767,170.887711 
	C108.327217,172.279007 108.999924,173.641663 109.464378,175.071945 
	C109.762695,175.990585 109.754433,177.008759 109.526245,178.123047 
z"/>
<path fill="#191919" opacity="1.000000" stroke="none" 
	d="
M69.967766,182.995239 
	C69.715874,183.577682 69.463982,184.160126 69.036301,184.910706 
	C67.685783,184.438004 66.511055,183.797134 64.971191,182.973358 
	C65.125961,182.122818 65.645866,181.455200 66.617264,180.984100 
	C68.035103,181.785477 69.001434,182.390350 69.967766,182.995239 
z"/>
<path fill="#101010" opacity="1.000000" stroke="none" 
	d="
M237.670212,189.739532 
	C236.901886,189.805557 236.104660,189.594009 235.307434,189.382477 
	C235.437180,189.053635 235.566910,188.724792 235.696655,188.395950 
	C236.344879,188.751297 236.993088,189.106644 237.670212,189.739532 
z"/>
<path fill="#171717" opacity="1.000000" stroke="none" 
	d="
M99.874084,170.739090 
	C99.119804,170.912140 98.240417,170.801559 97.160736,170.416458 
	C97.889954,170.246429 98.819466,170.350952 99.874084,170.739090 
z"/>
<path fill="#0F0F0F" opacity="1.000000" stroke="none" 
	d="
M93.513458,66.953491 
	C93.009018,66.282654 92.812813,65.551956 92.557327,64.446671 
	C92.939270,65.012596 93.380486,65.953110 93.513458,66.953491 
z"/>
<path fill="#111111" opacity="1.000000" stroke="none" 
	d="
M174.397293,103.720230 
	C174.557541,103.847549 174.580734,104.068237 174.603928,104.288925 
	C174.489349,104.130486 174.374786,103.972046 174.397293,103.720230 
z"/>
<path fill="#101010" opacity="1.000000" stroke="none" 
	d="
M281.400452,574.719849 
	C281.561493,574.847595 281.584778,575.069214 281.608093,575.290833 
	C281.492981,575.131775 281.377838,574.972717 281.400452,574.719849 
z"/>
<path fill="#101010" opacity="1.000000" stroke="none" 
	d="
M239.536072,189.551392 
	C239.477081,189.587845 239.595078,189.514923 239.536072,189.551392 
z"/>
<path fill="#171717" opacity="1.000000" stroke="none" 
	d="
M113.590210,182.338287 
	C113.693192,182.093231 113.869362,181.876358 114.045532,181.659470 
	C114.051155,181.846664 114.056793,182.033875 113.896652,182.364594 
	C113.730881,182.508102 113.663399,182.366486 113.590210,182.338287 
z"/>
<path fill="#0F0F0F" opacity="1.000000" stroke="none" 
	d="
M297.451935,482.531921 
	C297.418793,482.476593 297.485077,482.587219 297.451935,482.531921 
z"/>
<path fill="#0F0F0F" opacity="1.000000" stroke="none" 
	d="
M301.450012,488.531189 
	C301.417236,488.476685 301.482819,488.585724 301.450012,488.531189 
z"/>
<path fill="#101010" opacity="1.000000" stroke="none" 
	d="
M285.465881,571.446411 
	C285.524506,571.410522 285.407227,571.482300 285.465881,571.446411 
z"/>
<path fill="#0F0F0F" opacity="1.000000" stroke="none" 
	d="
M330.533752,40.550285 
	C330.476807,40.584774 330.590729,40.515800 330.533752,40.550285 
z"/>
<path fill="#0D0D0D" opacity="1.000000" stroke="none" 
	d="
M160.009216,126.992874 
	C160.139984,127.140022 160.261749,127.294418 160.383514,127.448814 
	C160.290192,127.400558 160.196884,127.352303 160.044662,127.161102 
	C159.985764,127.018158 160.000229,127.000122 160.009216,126.992874 
z"/>
<path fill="#010101" opacity="1.000000" stroke="none" 
	d="
M335.996582,38.995575 
	C336.091675,38.958988 336.190247,38.926762 336.148682,38.950607 
	C336.008545,39.006676 336.000000,38.999939 335.996582,38.995575 
z"/>
<path fill="#010101" opacity="1.000000" stroke="none" 
	d="
M167.447021,106.537277 
	C167.411530,106.478569 167.482513,106.595985 167.447021,106.537277 
z"/>
<path fill="#010101" opacity="1.000000" stroke="none" 
	d="
M70.248505,182.838623 
	C69.001434,182.390350 68.035103,181.785477 66.911118,180.853333 
	C67.234039,179.859009 67.714607,179.191940 68.465355,178.373962 
	C69.431870,179.107208 70.128197,179.991379 71.234055,181.010239 
	C71.272141,181.657303 70.900696,182.169662 70.248505,182.838623 
z"/>
<path fill="#060606" opacity="1.000000" stroke="none" 
	d="
M108.346664,209.106232 
	C107.160469,213.506760 106.442955,218.719116 101.474144,218.691299 
	C96.536026,218.663666 95.130257,213.505066 94.904884,209.455124 
	C94.598579,203.951019 94.963547,198.287064 96.032997,192.888229 
	C96.470802,190.678070 99.501259,188.981476 101.352280,187.051254 
	C103.325645,189.044662 106.481949,190.760132 107.029083,193.088669 
	C108.212357,198.124542 108.058403,203.474609 108.346664,209.106232 
z"/>
<path fill="#070707" opacity="1.000000" stroke="none" 
	d="
M178.682175,188.416077 
	C181.447098,189.567429 184.876831,190.277008 186.115067,192.316879 
	C190.274780,199.169556 190.142700,206.597351 186.317398,213.649826 
	C183.190399,219.414902 178.217728,219.398605 174.764511,213.902634 
	C169.794113,205.991989 171.485474,194.024673 178.682175,188.416077 
z"/>
<path fill="#010101" opacity="1.000000" stroke="none" 
	d="
M75.437927,173.533234 
	C75.397636,173.468353 75.478210,173.598114 75.437927,173.533234 
z"/>
</svg>