<svg version="1.1" id="Layer_1" xmlns="http://www.w3.org/2000/svg" xmlns:xlink="http://www.w3.org/1999/xlink" x="0px" y="0px"
	 width="100%" viewBox="0 0 1024 1024" enable-background="new 0 0 1024 1024" xml:space="preserve">
<path fill="#121212" opacity="1.000000" stroke="none" 
	d="
M251.379730,803.749146 
	C243.331833,807.189453 237.301620,803.649048 232.067764,798.703064 
	C223.545868,790.649902 217.757187,780.821960 215.100983,769.316650 
	C212.692261,758.883362 216.947128,751.911438 227.235779,748.743835 
	C235.555862,746.182312 243.998688,746.676147 252.464371,747.332581 
	C262.758698,748.130798 268.169373,757.137451 270.018982,767.005127 
	C272.196442,778.621704 262.186035,797.983643 251.379730,803.749146 
z"/>
<path fill="#121212" opacity="1.000000" stroke="none" 
	d="
M461.601318,744.474304 
	C461.330658,744.934937 461.259979,745.086365 461.172791,745.227661 
	C451.580902,760.777588 439.545380,761.971130 427.432037,748.281433 
	C420.631134,740.595520 415.706726,731.788452 413.440277,721.617310 
	C411.247406,711.776245 415.734222,704.105408 425.514160,701.448547 
	C434.329651,699.053711 443.317352,699.047058 452.236084,700.356750 
	C461.692688,701.745483 469.751831,713.961670 468.653107,724.536682 
	C467.917480,731.616638 465.202972,738.011597 461.601318,744.474304 
z"/>
<path fill="#121212" opacity="1.000000" stroke="none" 
	d="
M288.359924,574.417358 
	C292.745819,570.385376 297.930084,569.037109 303.189209,568.254639 
	C309.448334,567.323181 315.821198,567.385376 322.087585,568.162659 
	C332.828461,569.495117 341.442688,580.865173 340.161407,592.467346 
	C339.025116,602.756226 335.031433,612.088684 327.914948,619.749939 
	C321.191315,626.988281 313.484192,628.115173 305.693115,622.300720 
	C294.189178,613.715332 287.345551,601.887634 284.756622,587.794861 
	C283.900635,583.135315 284.735107,578.484192 288.359924,574.417358 
z"/>
<path fill="#121212" opacity="1.000000" stroke="none" 
	d="
M344.418518,566.418457 
	C344.952759,564.437195 345.432251,562.845642 345.727386,561.220642 
	C347.145264,553.414734 350.397522,550.511780 358.479797,549.927795 
	C365.420197,549.426331 374.253082,554.761108 376.153961,560.602417 
	C378.359772,567.380859 374.804474,577.692383 368.988922,581.521729 
	C366.071716,583.442566 363.066589,583.657471 360.051025,581.962891 
	C357.059143,580.281555 353.790833,579.790161 350.488098,579.486633 
	C342.047272,578.710815 340.544647,576.419495 343.537354,568.642639 
	C343.775909,568.022705 344.031281,567.409302 344.418518,566.418457 
z"/>
<path fill="#121212" opacity="1.000000" stroke="none" 
	d="
M498.887970,711.968994 
	C495.963043,715.408813 492.760162,715.618042 489.203583,713.968079 
	C485.392120,712.199829 481.415344,711.369446 477.183197,711.150513 
	C471.463013,710.854492 469.558014,707.907471 471.328339,702.389038 
	C472.696503,698.124023 474.080322,693.905396 475.011841,689.491577 
	C476.325623,683.266479 484.375732,680.168396 492.402771,682.372192 
	C506.306335,686.189575 509.570862,700.377258 498.887970,711.968994 
z"/>
<path fill="#121212" opacity="1.000000" stroke="none" 
	d="
M287.944855,760.208740 
	C284.601257,758.766968 281.399414,758.928894 278.270660,758.564087 
	C273.066833,757.957397 271.146301,755.297729 272.642181,750.344482 
	C274.034729,745.733215 275.552063,741.177002 276.708191,736.481995 
	C277.937897,731.488220 283.901459,728.415344 290.494690,729.168518 
	C297.324768,729.948792 303.185394,732.867371 305.914337,739.473938 
	C308.585419,745.940552 305.372253,755.246521 299.930237,759.932617 
	C296.053192,763.271301 292.253510,762.151245 287.944855,760.208740 
z"/>
<path fill="#121212" opacity="1.000000" stroke="none" 
	d="
M313.462158,560.699585 
	C306.597137,553.465942 307.732849,543.824097 315.730591,539.027893 
	C318.431946,537.407898 321.212921,535.904297 324.037750,534.510193 
	C330.008911,531.563293 335.012848,533.938110 339.578796,537.716003 
	C343.817596,541.223206 343.319763,545.584534 342.034912,550.441589 
	C338.253571,564.735962 329.855804,566.619751 313.462158,560.699585 
z"/>
<path fill="#121212" opacity="1.000000" stroke="none" 
	d="
M254.581741,742.546692 
	C252.517975,742.209717 250.865707,742.010559 249.239029,741.684021 
	C242.052841,740.241699 240.114319,738.495605 239.065247,732.614258 
	C238.000595,726.645386 240.078995,721.752136 245.027573,718.509033 
	C247.952332,716.592224 251.046371,715.045166 254.248764,713.616150 
	C260.139313,710.987671 264.975494,712.912598 269.364471,716.714050 
	C273.592102,720.375732 273.500000,724.846313 271.822235,729.901611 
	C268.264587,740.621338 263.854187,744.160706 254.581741,742.546692 
z"/>
<path fill="#121212" opacity="1.000000" stroke="none" 
	d="
M452.835144,695.324097 
	C451.109680,695.034485 449.807892,694.747314 448.493225,694.543152 
	C443.290619,693.734924 438.734863,692.266235 437.789612,685.994629 
	C436.554108,677.796936 438.097412,674.218689 445.065063,670.238342 
	C448.244293,668.422180 451.397186,666.518555 455.007874,665.636047 
	C464.861206,663.227722 473.139526,671.497009 470.606628,681.237183 
	C470.104492,683.167969 469.537262,685.097290 468.803864,686.949646 
	C466.042877,693.923340 462.068329,696.040833 452.835144,695.324097 
z"/>
<path fill="#121212" opacity="1.000000" stroke="none" 
	d="
M491.909546,721.763611 
	C502.042542,724.527893 504.575623,727.457764 504.224823,735.425354 
	C504.094208,738.392578 503.077087,740.934753 500.995209,743.021057 
	C497.063263,746.961304 492.345551,749.871704 487.213501,751.728760 
	C481.420044,753.825195 477.136444,750.155457 472.962097,746.717712 
	C469.234650,743.647949 470.080353,740.060303 471.474121,736.320251 
	C471.995697,734.920593 472.458466,733.499084 472.950073,732.088257 
	C476.527283,721.822571 480.959747,719.338074 491.909546,721.763611 
z"/>
<path fill="#121212" opacity="1.000000" stroke="none" 
	d="
M300.351868,792.396851 
	C296.744568,794.834534 293.451721,797.074341 289.760864,798.666443 
	C286.854034,799.920349 284.127319,800.040283 281.164978,798.594604 
	C272.039764,794.141174 270.646179,791.005737 273.790924,781.346619 
	C275.743591,775.349060 277.897491,769.322449 285.261475,768.433655 
	C291.481689,767.682861 297.558014,769.045410 302.614380,772.857544 
	C307.434143,776.491394 307.255646,788.032410 300.351868,792.396851 
z"/>
<path fill="#121212" opacity="1.000000" stroke="none" 
	d="
M372.537231,611.305176 
	C368.681335,615.186707 364.226288,617.473633 359.650024,619.436768 
	C353.684387,621.995728 349.124084,618.926880 344.785706,615.230103 
	C340.842072,611.869690 341.481964,608.053406 343.293732,603.937439 
	C344.227814,601.815430 344.748718,599.514893 345.622711,597.362549 
	C348.137695,591.169006 353.365051,588.242310 359.906799,589.283447 
	C361.547150,589.544495 363.198212,589.786438 364.807800,590.184814 
	C375.751862,592.893555 378.946442,601.256165 372.537231,611.305176 
z"/>
</svg>